<!DOCTYPE svg PUBLIC "-//W3C//DTD SVG 20010904//EN" "http://www.w3.org/TR/2001/REC-SVG-20010904/DTD/svg10.dtd">
<svg version="1.0" xmlns="http://www.w3.org/2000/svg" width="972px" height="376px" viewBox="0 0 9720 3760" preserveAspectRatio="xMidYMid meet">
<g id="layer101" fill="#1DB954" stroke="none">
<path d="M3930 2807 c-95 -26 -184 -115 -210 -207 -5 -19 -10 -117 -10 -217 l0 -183 74 0 75 0 3 183 c3 172 4 184 26 215 47 66 53 67 407 70 176 2 339 0 363 -3 50 -7 108 -53 128 -102 10 -23 14 -81 14 -198 l0 -165 75 0 75 0 0 180 c0 156 -3 186 -20 234 -27 72 -88 139 -158 173 l-57 28 -370 2 c-270 2 -382 -1 -415 -10z"/>
<path d="M5890 2145 l0 -675 335 0 335 0 0 145 0 145 -190 0 -190 0 0 95 0 95 110 0 110 0 0 140 0 140 -110 0 -110 0 0 295 0 295 -145 0 -145 0 0 -675z"/>
<path d="M6720 2145 l0 -675 335 0 335 0 0 145 0 145 -195 0 -195 0 0 95 0 95 110 0 110 0 0 140 0 140 -110 0 -111 0 3 153 3 152 193 3 192 2 0 140 0 140 -335 0 -335 0 0 -675z"/>
<path d="M7560 2145 l0 -675 335 0 335 0 0 145 0 145 -195 0 -196 0 3 93 3 92 108 3 107 3 0 139 0 140 -110 0 -111 0 3 153 3 152 193 3 192 2 0 140 0 140 -335 0 -335 0 0 -675z"/>
<path d="M8410 2145 l0 -677 203 4 c161 4 212 8 250 22 70 26 148 102 183 178 l29 63 3 357 c2 230 0 384 -8 430 -19 126 -84 213 -199 267 -54 25 -64 26 -258 29 l-203 4 0 -677z m326 360 c28 -16 49 -39 63 -68 20 -40 21 -60 21 -292 0 -232 -1 -252 -21 -292 -23 -48 -62 -80 -108 -89 l-31 -6 0 386 c0 434 -5 409 76 361z"/>
<path d="M4066 2159 c-52 -41 -18 -139 49 -139 33 0 75 41 75 74 0 38 -10 55 -41 71 -37 20 -51 19 -83 -6z"/>
<path d="M4523 2168 c-33 -16 -48 -61 -33 -97 24 -60 112 -63 139 -5 17 38 14 53 -18 85 -31 30 -52 35 -88 17z"/>
<path d="M3710 1862 c0 -231 8 -261 89 -343 90 -89 89 -89 531 -89 425 0 435 1 515 72 25 22 58 64 73 92 26 50 27 56 30 254 l3 202 -75 0 -75 0 -3 -184 c-3 -168 -5 -187 -24 -212 -44 -59 -67 -69 -180 -72 -57 -2 -104 0 -104 5 0 4 7 30 15 57 22 74 22 76 -34 76 l-49 0 -36 -70 -37 -70 -186 0 c-206 0 -235 7 -276 64 -21 29 -22 43 -25 219 l-3 187 -75 0 -74 0 0 -188z"/>
<path d="M3940 1340 l-75 -50 -175 0 c-157 0 -178 -2 -208 -20 -59 -36 -72 -71 -72 -192 l0 -108 74 0 73 0 7 39 c7 47 48 99 93 117 43 18 203 18 246 0 40 -16 86 -69 94 -107 5 -29 6 -29 79 -29 l74 0 0 99 c0 85 -3 103 -22 132 -13 19 -42 43 -65 54 -40 18 -42 21 -45 67 l-3 48 -75 -50z"/>
</g>
<g id="layer102" fill="#191414" stroke="none">
<!-- <path d="M380 3110 l0 -110 44 0 c88 0 136 37 136 106 0 72 -54 114 -147 114 l-33 0 0 -110z m137 55 c51 -59 6 -145 -76 -145 l-41 0 0 91 0 92 47 -6 c35 -4 53 -12 70 -32z"/> -->
<!-- <path d="M640 3110 l0 -110 80 0 c47 0 80 4 80 10 0 6 -30 10 -71 10 l-70 0 3 38 3 37 58 3 c76 4 73 22 -4 22 l-60 0 3 38 3 37 68 3 c94 4 84 22 -13 22 l-80 0 0 -110z"/> -->
<!-- <path d="M1000 3110 l0 -110 75 0 c43 0 75 4 75 10 0 6 -28 10 -65 10 l-65 0 0 40 0 40 55 0 c30 0 55 5 55 10 0 6 -25 10 -55 10 l-55 0 0 50 c0 28 -4 50 -10 50 -6 0 -10 -43 -10 -110z"/> -->
<!-- <path d="M1230 3110 l0 -110 75 0 c43 0 75 4 75 10 0 6 -28 10 -65 10 l-65 0 0 40 0 40 55 0 c30 0 55 5 55 10 0 6 -25 10 -55 10 l-55 0 0 40 0 40 65 0 c37 0 65 4 65 10 0 6 -32 10 -75 10 l-75 0 0 -110z"/> -->
<!-- <path d="M1460 3110 l0 -110 75 0 c43 0 75 4 75 10 0 6 -28 10 -65 10 l-65 0 0 40 0 40 60 0 c33 0 60 4 60 10 0 6 -27 10 -60 10 l-60 0 0 40 0 40 65 0 c37 0 65 4 65 10 0 6 -32 10 -75 10 l-75 0 0 -110z"/> -->
<!-- <path d="M1690 3110 l0 -112 60 4 c73 5 111 30 124 81 19 75 -28 126 -125 134 l-59 6 0 -113z m119 75 c16 -8 34 -28 41 -45 25 -61 -26 -120 -105 -120 l-35 0 0 90 0 90 35 0 c20 0 49 -7 64 -15z"/> -->
<!-- <path d="M1960 3110 l0 -110 58 0 c89 0 124 35 86 88 -8 12 -11 22 -5 22 17 0 33 40 27 65 -7 28 -51 45 -117 45 l-49 0 0 -110z m131 80 c21 -12 25 -40 7 -58 -7 -7 -36 -12 -65 -12 l-53 0 0 40 0 40 46 0 c25 0 54 -5 65 -10z m-7 -106 c9 -8 16 -19 16 -24 0 -22 -34 -40 -76 -40 l-44 0 0 40 0 40 44 0 c27 0 51 -6 60 -16z"/> -->
<!-- <path d="M2199 3198 c26 -66 93 -198 101 -198 5 0 19 21 30 48 12 26 34 74 49 107 16 33 27 62 25 64 -6 7 -26 -12 -34 -35 -9 -22 -15 -24 -73 -24 -60 0 -63 1 -74 30 -6 17 -16 30 -22 30 -7 0 -7 -8 -2 -22z m130 -105 c-33 -77 -31 -78 -76 35 -4 9 9 12 46 12 l50 0 -20 -47z"/> -->
<!-- <path d="M2511 3206 c-69 -38 -67 -162 4 -194 35 -16 87 -15 111 2 24 18 13 31 -14 17 -95 -51 -183 74 -101 143 34 29 74 33 105 11 12 -8 24 -11 28 -8 11 11 -48 43 -79 43 -16 -1 -41 -7 -54 -14z"/> -->
<!-- <path d="M2720 3110 c0 -67 4 -110 10 -110 6 0 10 27 10 60 0 33 4 60 8 60 4 0 34 -27 67 -60 33 -33 64 -60 69 -60 6 0 -9 19 -32 43 -23 23 -42 46 -42 51 0 4 20 32 45 63 25 31 44 57 42 60 -10 9 -35 -12 -71 -58 l-38 -50 -24 22 c-16 15 -24 34 -24 56 0 18 -4 33 -10 33 -6 0 -10 -43 -10 -110z"/> -->
<!-- <path d="M2977 3204 c-37 -20 -25 -38 13 -19 37 19 74 19 90 0 22 -27 7 -47 -49 -67 -30 -10 -58 -24 -63 -31 -35 -54 48 -111 113 -77 29 16 24 31 -7 20 -37 -15 -70 -12 -85 6 -19 23 0 46 51 61 55 16 70 29 70 64 0 53 -72 76 -133 43z"/> -->
<!-- <path d="M3310 3110 l0 -110 75 0 c43 0 75 4 75 10 0 6 -28 10 -65 10 l-65 0 0 40 0 40 60 0 c33 0 60 4 60 10 0 6 -27 10 -60 10 l-60 0 0 40 0 40 65 0 c37 0 65 4 65 10 0 6 -32 10 -75 10 l-75 0 0 -110z"/> -->
<!-- <path d="M3703 3208 c-32 -15 -56 -73 -49 -117 11 -70 95 -114 157 -81 32 18 21 28 -19 17 -52 -14 -89 -3 -107 33 -23 45 -19 78 15 112 27 27 36 30 72 25 44 -6 60 -20 56 -52 -2 -15 -12 -21 -35 -23 -49 -5 -40 -22 12 -22 l45 0 0 44 c0 40 -3 45 -34 60 -38 18 -81 20 -113 4z"/> -->
<!-- <path d="M3929 3178 c57 -130 81 -178 90 -178 6 0 20 21 31 48 12 26 34 74 49 107 16 33 27 62 25 64 -6 7 -26 -12 -34 -35 -9 -22 -15 -24 -73 -24 -60 0 -63 1 -74 30 -6 17 -16 30 -22 30 -6 0 -2 -18 8 -42z m131 -63 c-5 -14 -17 -40 -26 -58 l-17 -32 -23 50 c-13 28 -23 53 -23 58 -1 4 21 7 49 7 49 0 49 0 40 -25z"/> -->
<!-- <path d="M4200 3110 c0 -65 4 -110 10 -110 5 0 31 27 57 61 26 34 58 73 70 88 l22 26 1 -87 c0 -52 4 -88 10 -88 6 0 10 44 10 111 0 61 -4 109 -9 107 -5 -1 -40 -41 -77 -88 l-69 -85 -3 88 c-4 127 -22 108 -22 -23z"/> -->
<!-- <path d="M4470 3110 c0 -67 4 -110 10 -110 6 0 10 23 10 50 l0 50 65 0 65 0 0 -50 c0 -27 5 -50 10 -50 6 0 10 43 10 110 0 67 -4 110 -10 110 -5 0 -10 -22 -10 -50 l0 -50 -65 0 -65 0 0 50 c0 28 -4 50 -10 50 -6 0 -10 -43 -10 -110z"/> -->
<!-- <path d="M4730 3110 l0 -110 80 0 c47 0 80 4 80 10 0 6 -30 10 -70 10 l-70 0 0 40 0 40 60 0 c33 0 60 4 60 10 0 6 -27 10 -60 10 l-60 0 0 40 0 40 70 0 c40 0 70 4 70 10 0 6 -33 10 -80 10 l-80 0 0 -110z"/> -->
<!-- <path d="M5117 3200 c-34 -27 -48 -79 -36 -125 13 -47 52 -75 103 -75 43 0 87 22 73 36 -4 5 -17 3 -27 -4 -32 -20 -84 -15 -108 11 -32 34 -30 100 3 132 28 29 63 32 107 9 23 -12 29 -13 26 -2 -13 38 -101 49 -141 18z"/> -->
<!-- <path d="M5366 3199 c-25 -19 -26 -25 -26 -110 0 -53 4 -89 10 -89 6 0 10 35 10 84 0 76 2 86 22 100 31 22 64 20 88 -4 17 -17 20 -33 20 -100 0 -47 4 -80 10 -80 11 0 14 148 4 175 -8 20 -56 45 -87 45 -13 0 -36 -9 -51 -21z"/> -->
<!-- <path d="M5600 3110 l0 -110 54 0 c131 0 148 125 18 138 l-52 5 0 38 c0 22 -4 39 -10 39 -6 0 -10 -43 -10 -110z m124 -12 c20 -29 20 -34 -4 -58 -13 -13 -33 -20 -60 -20 l-40 0 0 50 0 50 44 0 c35 0 48 -5 60 -22z"/> -->
<!-- <path d="M5861 3193 c-53 -53 -53 -112 -1 -164 54 -54 149 -31 171 40 23 77 -17 140 -93 148 -42 5 -50 2 -77 -24z m130 -22 c20 -20 29 -39 29 -61 0 -44 -47 -90 -92 -90 -77 0 -113 106 -54 157 38 32 81 30 117 -6z"/> -->
<!-- <path d="M6120 3110 c0 -129 6 -135 63 -57 21 29 51 68 67 87 l30 34 0 -87 c0 -51 4 -87 10 -87 6 0 10 43 10 110 0 84 -3 108 -12 104 -7 -3 -40 -41 -73 -84 -33 -44 -63 -79 -67 -80 -5 0 -8 38 -8 85 0 50 -4 85 -10 85 -6 0 -10 -43 -10 -110z"/> -->
<!-- <path d="M6420 3213 c-25 -9 -40 -25 -34 -34 3 -5 15 -2 27 6 38 27 107 11 107 -25 0 -13 -39 -36 -75 -45 -42 -9 -55 -23 -55 -56 0 -37 24 -59 66 -59 40 0 77 16 69 31 -4 5 -14 5 -26 -2 -11 -5 -34 -9 -52 -7 -26 2 -33 8 -35 29 -2 21 3 28 27 38 17 6 45 16 61 22 17 6 30 15 30 19 0 5 3 15 6 24 9 23 -40 66 -73 65 -15 0 -35 -3 -43 -6z"/> -->
<!-- <path d="M6610 3205 c0 -8 7 -15 15 -15 8 0 15 7 15 15 0 8 -7 15 -15 15 -8 0 -15 -7 -15 -15z"/> -->
<!-- <path d="M6620 3108 c0 -25 -3 -60 -6 -77 -5 -25 -3 -31 10 -31 14 0 15 9 10 73 -8 84 -14 100 -14 35z"/> -->
<!-- <path d="M692 2970 c6 -21 42 -24 58 -5 14 17 3 20 -20 5 -9 -6 -19 -5 -29 3 -11 10 -13 9 -9 -3z"/> -->
<path d="M602 2792 c-96 -35 -180 -122 -207 -217 -13 -45 -15 -115 -13 -457 l3 -403 26 -55 c34 -72 88 -126 163 -161 51 -24 74 -29 141 -29 67 0 90 5 141 29 76 36 129 88 163 160 22 49 26 72 29 184 l4 127 -80 0 -80 0 -4 -102 c-5 -121 -23 -167 -79 -205 -100 -66 -227 -20 -258 94 -15 52 -15 700 0 757 13 53 67 108 122 126 54 17 115 -1 160 -49 43 -44 57 -92 57 -198 l0 -83 81 0 81 0 -4 123 c-3 106 -7 129 -29 177 -37 79 -81 125 -157 162 -84 41 -178 48 -260 20z"/>
<path d="M1460 2794 c-95 -34 -158 -94 -202 -190 -23 -49 -23 -53 -23 -464 l0 -415 29 -62 c32 -69 89 -129 158 -164 65 -34 194 -38 271 -9 79 30 157 108 186 185 20 53 21 74 21 460 0 383 -1 407 -21 459 -26 72 -96 148 -166 182 -70 35 -184 43 -253 18z m163 -158 c50 -18 76 -42 98 -91 17 -36 19 -72 19 -405 0 -334 -2 -368 -19 -406 -58 -128 -238 -136 -302 -14 -18 32 -19 64 -19 413 0 406 1 418 53 465 25 24 89 51 117 51 8 0 32 -6 53 -13z"/>
<path d="M2284 2781 c-73 -34 -124 -83 -162 -154 l-27 -52 -3 -552 -3 -553 81 0 80 0 0 508 c0 318 4 521 10 544 22 80 109 137 186 125 52 -9 108 -49 130 -94 18 -36 19 -70 22 -560 l3 -523 80 0 80 0 -3 543 -3 542 -28 60 c-79 169 -279 244 -443 166z"/>
<path d="M2930 2139 l0 -670 213 3 c198 3 215 5 258 26 75 37 125 87 161 160 l33 67 0 160 c0 154 -1 162 -28 220 -68 145 -177 205 -374 205 l-103 0 0 250 0 250 -80 0 -80 0 0 -671z m404 -13 c18 -8 46 -31 62 -52 28 -36 29 -42 32 -163 4 -147 -5 -188 -53 -230 -45 -39 -90 -51 -197 -51 l-88 0 0 255 0 255 105 0 c68 0 118 -5 139 -14z"/>
<path d="M5070 2140 l0 -670 83 0 82 0 165 442 165 442 3 -442 2 -442 85 0 85 0 0 670 0 671 -86 -3 -86 -3 -163 -434 c-90 -238 -166 -436 -169 -439 -3 -3 -6 193 -6 436 l0 442 -80 0 -80 0 0 -670z"/>
</g>


</svg>