<!DOCTYPE svg PUBLIC "-//W3C//DTD SVG 20010904//EN" "http://www.w3.org/TR/2001/REC-SVG-20010904/DTD/svg10.dtd">
<svg version="1.0" xmlns="http://www.w3.org/2000/svg" width="972px" height="376px" viewBox="0 0 9720 3760" preserveAspectRatio="xMidYMid meet">
<g id="layer101" fill="#fff200" stroke="none">
<path d="M3930 2807 c-95 -26 -184 -115 -210 -207 -5 -19 -10 -117 -10 -217 l0 -183 74 0 75 0 3 183 c3 172 4 184 26 215 47 66 53 67 407 70 176 2 339 0 363 -3 50 -7 108 -53 128 -102 10 -23 14 -81 14 -198 l0 -165 75 0 75 0 0 180 c0 156 -3 186 -20 234 -27 72 -88 139 -158 173 l-57 28 -370 2 c-270 2 -382 -1 -415 -10z"/>
<path d="M5890 2145 l0 -675 335 0 335 0 0 145 0 145 -190 0 -190 0 0 95 0 95 110 0 110 0 0 140 0 140 -110 0 -110 0 0 295 0 295 -145 0 -145 0 0 -675z"/>
<path d="M6720 2145 l0 -675 335 0 335 0 0 145 0 145 -195 0 -195 0 0 95 0 95 110 0 110 0 0 140 0 140 -110 0 -111 0 3 153 3 152 193 3 192 2 0 140 0 140 -335 0 -335 0 0 -675z"/>
<path d="M7560 2145 l0 -675 335 0 335 0 0 145 0 145 -195 0 -196 0 3 93 3 92 108 3 107 3 0 139 0 140 -110 0 -111 0 3 153 3 152 193 3 192 2 0 140 0 140 -335 0 -335 0 0 -675z"/>
<path d="M8410 2145 l0 -677 203 4 c161 4 212 8 250 22 70 26 148 102 183 178 l29 63 3 357 c2 230 0 384 -8 430 -19 126 -84 213 -199 267 -54 25 -64 26 -258 29 l-203 4 0 -677z m326 360 c28 -16 49 -39 63 -68 20 -40 21 -60 21 -292 0 -232 -1 -252 -21 -292 -23 -48 -62 -80 -108 -89 l-31 -6 0 386 c0 434 -5 409 76 361z"/>
<path d="M4066 2159 c-52 -41 -18 -139 49 -139 33 0 75 41 75 74 0 38 -10 55 -41 71 -37 20 -51 19 -83 -6z"/>
<path d="M4523 2168 c-33 -16 -48 -61 -33 -97 24 -60 112 -63 139 -5 17 38 14 53 -18 85 -31 30 -52 35 -88 17z"/>
<path d="M3710 1862 c0 -231 8 -261 89 -343 90 -89 89 -89 531 -89 425 0 435 1 515 72 25 22 58 64 73 92 26 50 27 56 30 254 l3 202 -75 0 -75 0 -3 -184 c-3 -168 -5 -187 -24 -212 -44 -59 -67 -69 -180 -72 -57 -2 -104 0 -104 5 0 4 7 30 15 57 22 74 22 76 -34 76 l-49 0 -36 -70 -37 -70 -186 0 c-206 0 -235 7 -276 64 -21 29 -22 43 -25 219 l-3 187 -75 0 -74 0 0 -188z"/>
<path d="M3940 1340 l-75 -50 -175 0 c-157 0 -178 -2 -208 -20 -59 -36 -72 -71 -72 -192 l0 -108 74 0 73 0 7 39 c7 47 48 99 93 117 43 18 203 18 246 0 40 -16 86 -69 94 -107 5 -29 6 -29 79 -29 l74 0 0 99 c0 85 -3 103 -22 132 -13 19 -42 43 -65 54 -40 18 -42 21 -45 67 l-3 48 -75 -50z"/>
</g>
<g id="layer102" fill="#ffffff" stroke="none">
<path d="M602 2792 c-96 -35 -180 -122 -207 -217 -13 -45 -15 -115 -13 -457 l3 -403 26 -55 c34 -72 88 -126 163 -161 51 -24 74 -29 141 -29 67 0 90 5 141 29 76 36 129 88 163 160 22 49 26 72 29 184 l4 127 -80 0 -80 0 -4 -102 c-5 -121 -23 -167 -79 -205 -100 -66 -227 -20 -258 94 -15 52 -15 700 0 757 13 53 67 108 122 126 54 17 115 -1 160 -49 43 -44 57 -92 57 -198 l0 -83 81 0 81 0 -4 123 c-3 106 -7 129 -29 177 -37 79 -81 125 -157 162 -84 41 -178 48 -260 20z"/>
<path d="M1460 2794 c-95 -34 -158 -94 -202 -190 -23 -49 -23 -53 -23 -464 l0 -415 29 -62 c32 -69 89 -129 158 -164 65 -34 194 -38 271 -9 79 30 157 108 186 185 20 53 21 74 21 460 0 383 -1 407 -21 459 -26 72 -96 148 -166 182 -70 35 -184 43 -253 18z m163 -158 c50 -18 76 -42 98 -91 17 -36 19 -72 19 -405 0 -334 -2 -368 -19 -406 -58 -128 -238 -136 -302 -14 -18 32 -19 64 -19 413 0 406 1 418 53 465 25 24 89 51 117 51 8 0 32 -6 53 -13z"/>
<path d="M2284 2781 c-73 -34 -124 -83 -162 -154 l-27 -52 -3 -552 -3 -553 81 0 80 0 0 508 c0 318 4 521 10 544 22 80 109 137 186 125 52 -9 108 -49 130 -94 18 -36 19 -70 22 -560 l3 -523 80 0 80 0 -3 543 -3 542 -28 60 c-79 169 -279 244 -443 166z"/>
<path d="M2930 2139 l0 -670 213 3 c198 3 215 5 258 26 75 37 125 87 161 160 l33 67 0 160 c0 154 -1 162 -28 220 -68 145 -177 205 -374 205 l-103 0 0 250 0 250 -80 0 -80 0 0 -671z m404 -13 c18 -8 46 -31 62 -52 28 -36 29 -42 32 -163 4 -147 -5 -188 -53 -230 -45 -39 -90 -51 -197 -51 l-88 0 0 255 0 255 105 0 c68 0 118 -5 139 -14z"/>
<path d="M5070 2140 l0 -670 83 0 82 0 165 442 165 442 3 -442 2 -442 85 0 85 0 0 670 0 671 -86 -3 -86 -3 -163 -434 c-90 -238 -166 -436 -169 -439 -3 -3 -6 193 -6 436 l0 442 -80 0 -80 0 0 -670z"/>
</g>


</svg>